<mxfile host="app.diagrams.net" modified="2023-05-02T12:00:13.329Z" agent="Mozilla/5.0 (Macintosh; Intel Mac OS X 10_15_7) AppleWebKit/537.36 (KHTML, like Gecko) Chrome/112.0.0.0 Safari/537.36" etag="-4VFIhvy92w1vrIlsjId" version="21.1.1" type="github">
  <diagram name="페이지-1" id="c91m3DdxbJwZdMrbwp2w">
    <mxGraphModel dx="298" dy="580" grid="1" gridSize="10" guides="1" tooltips="1" connect="1" arrows="1" fold="1" page="1" pageScale="1" pageWidth="827" pageHeight="1169" math="0" shadow="0">
      <root>
        <mxCell id="0" />
        <mxCell id="1" parent="0" />
        <mxCell id="VP0A-6QvOMtMgapWuJJO-18" style="edgeStyle=orthogonalEdgeStyle;rounded=0;orthogonalLoop=1;jettySize=auto;html=1;exitX=1;exitY=0.3333333333333333;exitDx=0;exitDy=0;exitPerimeter=0;entryX=0;entryY=0.5;entryDx=0;entryDy=0;strokeColor=default;" edge="1" parent="1" source="VP0A-6QvOMtMgapWuJJO-1" target="VP0A-6QvOMtMgapWuJJO-6">
          <mxGeometry relative="1" as="geometry" />
        </mxCell>
        <mxCell id="VP0A-6QvOMtMgapWuJJO-19" style="edgeStyle=orthogonalEdgeStyle;rounded=0;orthogonalLoop=1;jettySize=auto;html=1;exitX=1;exitY=0.3333333333333333;exitDx=0;exitDy=0;exitPerimeter=0;entryX=0;entryY=0.5;entryDx=0;entryDy=0;" edge="1" parent="1" source="VP0A-6QvOMtMgapWuJJO-1" target="VP0A-6QvOMtMgapWuJJO-10">
          <mxGeometry relative="1" as="geometry" />
        </mxCell>
        <mxCell id="VP0A-6QvOMtMgapWuJJO-20" style="edgeStyle=orthogonalEdgeStyle;rounded=0;orthogonalLoop=1;jettySize=auto;html=1;exitX=1;exitY=0.3333333333333333;exitDx=0;exitDy=0;exitPerimeter=0;" edge="1" parent="1" source="VP0A-6QvOMtMgapWuJJO-1" target="VP0A-6QvOMtMgapWuJJO-9">
          <mxGeometry relative="1" as="geometry" />
        </mxCell>
        <mxCell id="VP0A-6QvOMtMgapWuJJO-21" style="edgeStyle=orthogonalEdgeStyle;rounded=0;orthogonalLoop=1;jettySize=auto;html=1;exitX=1;exitY=0.3333333333333333;exitDx=0;exitDy=0;exitPerimeter=0;entryX=0;entryY=0.5;entryDx=0;entryDy=0;" edge="1" parent="1" source="VP0A-6QvOMtMgapWuJJO-1" target="VP0A-6QvOMtMgapWuJJO-8">
          <mxGeometry relative="1" as="geometry" />
        </mxCell>
        <mxCell id="VP0A-6QvOMtMgapWuJJO-1" value="이용자" style="shape=umlActor;verticalLabelPosition=bottom;verticalAlign=top;html=1;" vertex="1" parent="1">
          <mxGeometry x="80" y="390" width="30" height="60" as="geometry" />
        </mxCell>
        <mxCell id="VP0A-6QvOMtMgapWuJJO-4" value="게시판 서비스" style="shape=umlFrame;whiteSpace=wrap;html=1;pointerEvents=0;width=110;height=20;" vertex="1" parent="1">
          <mxGeometry x="160" y="80" width="840" height="770" as="geometry" />
        </mxCell>
        <mxCell id="VP0A-6QvOMtMgapWuJJO-6" value="회원가입" style="rounded=1;whiteSpace=wrap;html=1;arcSize=40;fontColor=#000000;fillColor=#ffffc0;strokeColor=#ff0000;" vertex="1" parent="1">
          <mxGeometry x="230" y="190" width="120" height="40" as="geometry" />
        </mxCell>
        <mxCell id="VP0A-6QvOMtMgapWuJJO-26" style="edgeStyle=orthogonalEdgeStyle;rounded=0;orthogonalLoop=1;jettySize=auto;html=1;exitX=1;exitY=0.5;exitDx=0;exitDy=0;dashed=1;" edge="1" parent="1" source="VP0A-6QvOMtMgapWuJJO-8" target="VP0A-6QvOMtMgapWuJJO-10">
          <mxGeometry relative="1" as="geometry" />
        </mxCell>
        <mxCell id="VP0A-6QvOMtMgapWuJJO-8" value="게시판 보기" style="rounded=1;whiteSpace=wrap;html=1;arcSize=40;fontColor=#000000;fillColor=#ffffc0;strokeColor=#ff0000;" vertex="1" parent="1">
          <mxGeometry x="230" y="330" width="120" height="40" as="geometry" />
        </mxCell>
        <mxCell id="VP0A-6QvOMtMgapWuJJO-27" style="edgeStyle=orthogonalEdgeStyle;rounded=0;orthogonalLoop=1;jettySize=auto;html=1;exitX=1;exitY=0.5;exitDx=0;exitDy=0;dashed=1;" edge="1" parent="1" source="VP0A-6QvOMtMgapWuJJO-9" target="VP0A-6QvOMtMgapWuJJO-10">
          <mxGeometry relative="1" as="geometry" />
        </mxCell>
        <mxCell id="VP0A-6QvOMtMgapWuJJO-9" value="게시글 보기" style="rounded=1;whiteSpace=wrap;html=1;arcSize=40;fontColor=#000000;fillColor=#ffffc0;strokeColor=#ff0000;" vertex="1" parent="1">
          <mxGeometry x="230" y="450" width="120" height="40" as="geometry" />
        </mxCell>
        <mxCell id="VP0A-6QvOMtMgapWuJJO-22" style="edgeStyle=orthogonalEdgeStyle;rounded=0;orthogonalLoop=1;jettySize=auto;html=1;exitX=1;exitY=0.5;exitDx=0;exitDy=0;entryX=0;entryY=0.5;entryDx=0;entryDy=0;dashed=1;" edge="1" parent="1" source="VP0A-6QvOMtMgapWuJJO-10" target="VP0A-6QvOMtMgapWuJJO-11">
          <mxGeometry relative="1" as="geometry" />
        </mxCell>
        <mxCell id="VP0A-6QvOMtMgapWuJJO-24" value="&amp;lt;&amp;lt;include&amp;gt;&amp;gt;" style="edgeLabel;html=1;align=center;verticalAlign=middle;resizable=0;points=[];" vertex="1" connectable="0" parent="VP0A-6QvOMtMgapWuJJO-22">
          <mxGeometry x="0.0344" y="2" relative="1" as="geometry">
            <mxPoint as="offset" />
          </mxGeometry>
        </mxCell>
        <mxCell id="VP0A-6QvOMtMgapWuJJO-10" value="회원 로그인" style="rounded=1;whiteSpace=wrap;html=1;arcSize=40;fontColor=#000000;fillColor=#ffffc0;strokeColor=#ff0000;" vertex="1" parent="1">
          <mxGeometry x="640" y="120" width="120" height="40" as="geometry" />
        </mxCell>
        <mxCell id="VP0A-6QvOMtMgapWuJJO-35" style="edgeStyle=orthogonalEdgeStyle;rounded=0;orthogonalLoop=1;jettySize=auto;html=1;exitX=1;exitY=0.5;exitDx=0;exitDy=0;entryX=0;entryY=0.5;entryDx=0;entryDy=0;" edge="1" parent="1" source="VP0A-6QvOMtMgapWuJJO-11" target="VP0A-6QvOMtMgapWuJJO-32">
          <mxGeometry relative="1" as="geometry" />
        </mxCell>
        <mxCell id="VP0A-6QvOMtMgapWuJJO-11" value="인증" style="rounded=1;whiteSpace=wrap;html=1;arcSize=40;fontColor=#000000;fillColor=#ffffc0;strokeColor=#ff0000;" vertex="1" parent="1">
          <mxGeometry x="840" y="120" width="120" height="40" as="geometry" />
        </mxCell>
        <mxCell id="VP0A-6QvOMtMgapWuJJO-23" style="edgeStyle=orthogonalEdgeStyle;rounded=0;orthogonalLoop=1;jettySize=auto;html=1;exitX=0;exitY=0.5;exitDx=0;exitDy=0;dashed=1;" edge="1" parent="1" source="VP0A-6QvOMtMgapWuJJO-12">
          <mxGeometry relative="1" as="geometry">
            <mxPoint x="760" y="140.0000000000001" as="targetPoint" />
          </mxGeometry>
        </mxCell>
        <mxCell id="VP0A-6QvOMtMgapWuJJO-25" value="&amp;lt;&amp;lt;extend&amp;gt;&amp;gt;" style="edgeLabel;html=1;align=center;verticalAlign=middle;resizable=0;points=[];" vertex="1" connectable="0" parent="VP0A-6QvOMtMgapWuJJO-23">
          <mxGeometry x="-0.3371" relative="1" as="geometry">
            <mxPoint as="offset" />
          </mxGeometry>
        </mxCell>
        <mxCell id="VP0A-6QvOMtMgapWuJJO-12" value="로그인 실패" style="rounded=1;whiteSpace=wrap;html=1;arcSize=40;fontColor=#000000;fillColor=#ffffc0;strokeColor=#ff0000;" vertex="1" parent="1">
          <mxGeometry x="840" y="190" width="120" height="40" as="geometry" />
        </mxCell>
        <mxCell id="VP0A-6QvOMtMgapWuJJO-28" style="edgeStyle=orthogonalEdgeStyle;rounded=0;orthogonalLoop=1;jettySize=auto;html=1;exitX=0;exitY=0.5;exitDx=0;exitDy=0;dashed=1;" edge="1" parent="1" source="VP0A-6QvOMtMgapWuJJO-13">
          <mxGeometry relative="1" as="geometry">
            <mxPoint x="350" y="350" as="targetPoint" />
          </mxGeometry>
        </mxCell>
        <mxCell id="VP0A-6QvOMtMgapWuJJO-13" value="게시판 정렬" style="rounded=1;whiteSpace=wrap;html=1;arcSize=40;fontColor=#000000;fillColor=#ffffc0;strokeColor=#ff0000;" vertex="1" parent="1">
          <mxGeometry x="750" y="310" width="120" height="40" as="geometry" />
        </mxCell>
        <mxCell id="VP0A-6QvOMtMgapWuJJO-29" style="edgeStyle=orthogonalEdgeStyle;rounded=0;orthogonalLoop=1;jettySize=auto;html=1;exitX=0;exitY=0.5;exitDx=0;exitDy=0;entryX=1;entryY=0.5;entryDx=0;entryDy=0;dashed=1;" edge="1" parent="1" source="VP0A-6QvOMtMgapWuJJO-14" target="VP0A-6QvOMtMgapWuJJO-8">
          <mxGeometry relative="1" as="geometry" />
        </mxCell>
        <mxCell id="VP0A-6QvOMtMgapWuJJO-14" value="게시판 검색" style="rounded=1;whiteSpace=wrap;html=1;arcSize=40;fontColor=#000000;fillColor=#ffffc0;strokeColor=#ff0000;" vertex="1" parent="1">
          <mxGeometry x="750" y="400" width="120" height="40" as="geometry" />
        </mxCell>
        <mxCell id="VP0A-6QvOMtMgapWuJJO-30" style="edgeStyle=orthogonalEdgeStyle;rounded=0;orthogonalLoop=1;jettySize=auto;html=1;exitX=0;exitY=0.5;exitDx=0;exitDy=0;entryX=1;entryY=0.5;entryDx=0;entryDy=0;dashed=1;" edge="1" parent="1" source="VP0A-6QvOMtMgapWuJJO-15" target="VP0A-6QvOMtMgapWuJJO-9">
          <mxGeometry relative="1" as="geometry" />
        </mxCell>
        <mxCell id="VP0A-6QvOMtMgapWuJJO-15" value="게시글 쓰기, 수정, 삭제" style="rounded=1;whiteSpace=wrap;html=1;arcSize=40;fontColor=#000000;fillColor=#ffffc0;strokeColor=#ff0000;" vertex="1" parent="1">
          <mxGeometry x="750" y="510" width="120" height="40" as="geometry" />
        </mxCell>
        <mxCell id="VP0A-6QvOMtMgapWuJJO-31" style="edgeStyle=orthogonalEdgeStyle;rounded=0;orthogonalLoop=1;jettySize=auto;html=1;exitX=0;exitY=0.5;exitDx=0;exitDy=0;dashed=1;" edge="1" parent="1" source="VP0A-6QvOMtMgapWuJJO-16">
          <mxGeometry relative="1" as="geometry">
            <mxPoint x="350" y="470" as="targetPoint" />
          </mxGeometry>
        </mxCell>
        <mxCell id="VP0A-6QvOMtMgapWuJJO-16" value="댓글 쓰기, 수정, 삭제" style="rounded=1;whiteSpace=wrap;html=1;arcSize=40;fontColor=#000000;fillColor=#ffffc0;strokeColor=#ff0000;" vertex="1" parent="1">
          <mxGeometry x="750" y="610" width="120" height="40" as="geometry" />
        </mxCell>
        <mxCell id="VP0A-6QvOMtMgapWuJJO-32" value="DB" style="html=1;dropTarget=0;whiteSpace=wrap;" vertex="1" parent="1">
          <mxGeometry x="1120" y="240" width="180" height="90" as="geometry" />
        </mxCell>
      </root>
    </mxGraphModel>
  </diagram>
</mxfile>
